<mxfile host="app.diagrams.net" agent="Mozilla/5.0 (Windows NT 10.0; Win64; x64) AppleWebKit/537.36 (KHTML, like Gecko) Chrome/138.0.0.0 Safari/537.36" version="28.0.7">
  <diagram name="Page-1" id="zlTvCwPAPpn9zcxwqGU8">
    <mxGraphModel dx="1426" dy="743" grid="1" gridSize="10" guides="1" tooltips="1" connect="1" arrows="1" fold="1" page="1" pageScale="1" pageWidth="850" pageHeight="1100" math="0" shadow="0">
      <root>
        <mxCell id="0" />
        <mxCell id="1" parent="0" />
        <mxCell id="TWlD7kDGyjFfQOnUKKmX-3" style="edgeStyle=orthogonalEdgeStyle;rounded=0;orthogonalLoop=1;jettySize=auto;html=1;" edge="1" parent="1" source="TWlD7kDGyjFfQOnUKKmX-1" target="TWlD7kDGyjFfQOnUKKmX-2">
          <mxGeometry relative="1" as="geometry" />
        </mxCell>
        <mxCell id="TWlD7kDGyjFfQOnUKKmX-1" value="Public Internet&lt;div&gt;Attackers&lt;/div&gt;" style="ellipse;shape=cloud;whiteSpace=wrap;html=1;" vertex="1" parent="1">
          <mxGeometry x="50" y="376.25" width="150" height="100" as="geometry" />
        </mxCell>
        <mxCell id="TWlD7kDGyjFfQOnUKKmX-5" style="rounded=0;orthogonalLoop=1;jettySize=auto;html=1;entryX=0;entryY=0.5;entryDx=0;entryDy=0;" edge="1" parent="1" source="TWlD7kDGyjFfQOnUKKmX-2" target="TWlD7kDGyjFfQOnUKKmX-4">
          <mxGeometry relative="1" as="geometry">
            <mxPoint x="541.25" y="321.5" as="targetPoint" />
          </mxGeometry>
        </mxCell>
        <mxCell id="TWlD7kDGyjFfQOnUKKmX-2" value="NSG(Network Security Group)&lt;div&gt;Azure&#39;s equivalent of a firewall&lt;/div&gt;&lt;div&gt;&lt;br&gt;&lt;/div&gt;" style="sketch=0;pointerEvents=1;shadow=0;dashed=0;html=1;strokeColor=none;labelPosition=center;verticalLabelPosition=bottom;verticalAlign=top;outlineConnect=0;align=center;shape=mxgraph.office.concepts.firewall;fillColor=#DA4026;" vertex="1" parent="1">
          <mxGeometry x="330" y="391.25" width="80" height="70" as="geometry" />
        </mxCell>
        <mxCell id="TWlD7kDGyjFfQOnUKKmX-4" value="" style="whiteSpace=wrap;html=1;aspect=fixed;" vertex="1" parent="1">
          <mxGeometry x="510" y="111.25" width="630" height="630" as="geometry" />
        </mxCell>
        <mxCell id="TWlD7kDGyjFfQOnUKKmX-6" value="Microsoft Sentinel&lt;div&gt;(SIEM)&lt;/div&gt;&lt;div&gt;&lt;br&gt;&lt;/div&gt;" style="image;sketch=0;aspect=fixed;html=1;points=[];align=center;fontSize=12;image=img/lib/mscae/Azure_Sentinel.svg;" vertex="1" parent="1">
          <mxGeometry x="1020" y="393.53" width="40" height="45.45" as="geometry" />
        </mxCell>
        <mxCell id="TWlD7kDGyjFfQOnUKKmX-8" style="edgeStyle=orthogonalEdgeStyle;rounded=0;orthogonalLoop=1;jettySize=auto;html=1;" edge="1" parent="1" source="TWlD7kDGyjFfQOnUKKmX-7" target="TWlD7kDGyjFfQOnUKKmX-6">
          <mxGeometry relative="1" as="geometry" />
        </mxCell>
        <mxCell id="TWlD7kDGyjFfQOnUKKmX-7" value="Log Analytics&amp;nbsp;&lt;div&gt;Workspace&lt;/div&gt;" style="image;aspect=fixed;html=1;points=[];align=center;fontSize=12;image=img/lib/azure2/management_governance/Log_Analytics_Workspaces.svg;" vertex="1" parent="1">
          <mxGeometry x="658.04" y="540" width="43.92" height="43.92" as="geometry" />
        </mxCell>
        <mxCell id="TWlD7kDGyjFfQOnUKKmX-9" value="Windows 10&lt;div&gt;Vulnerable&lt;span style=&quot;background-color: light-dark(#ffffff, var(--ge-dark-color, #121212)); color: light-dark(rgb(0, 0, 0), rgb(255, 255, 255));&quot;&gt;&amp;nbsp;&lt;/span&gt;&lt;/div&gt;&lt;div&gt;&lt;div&gt;Virtual Machine&lt;/div&gt;&lt;/div&gt;" style="image;sketch=0;aspect=fixed;html=1;points=[];align=center;fontSize=12;image=img/lib/mscae/VirtualMachineWindows.svg;" vertex="1" parent="1">
          <mxGeometry x="640" y="340" width="54.35" height="50" as="geometry" />
        </mxCell>
        <mxCell id="TWlD7kDGyjFfQOnUKKmX-12" value="Resource&amp;nbsp;&lt;div&gt;Group&lt;/div&gt;" style="image;sketch=0;aspect=fixed;html=1;points=[];align=center;fontSize=12;image=img/lib/mscae/ResourceGroup.svg;" vertex="1" parent="1">
          <mxGeometry x="560" y="130" width="50" height="40" as="geometry" />
        </mxCell>
        <mxCell id="TWlD7kDGyjFfQOnUKKmX-14" value="Virtual&lt;div&gt;Network&lt;/div&gt;&lt;div&gt;&lt;br&gt;&lt;/div&gt;" style="verticalLabelPosition=bottom;html=1;verticalAlign=top;align=center;strokeColor=none;fillColor=#00BEF2;shape=mxgraph.azure.virtual_network;pointerEvents=1;" vertex="1" parent="1">
          <mxGeometry x="640" y="260" width="50" height="30" as="geometry" />
        </mxCell>
        <mxCell id="TWlD7kDGyjFfQOnUKKmX-17" style="rounded=0;orthogonalLoop=1;jettySize=auto;html=1;" edge="1" parent="1" source="TWlD7kDGyjFfQOnUKKmX-15" target="TWlD7kDGyjFfQOnUKKmX-7">
          <mxGeometry relative="1" as="geometry" />
        </mxCell>
        <mxCell id="TWlD7kDGyjFfQOnUKKmX-15" value="" style="rounded=0;whiteSpace=wrap;html=1;opacity=60;" vertex="1" parent="1">
          <mxGeometry x="580" y="246.25" width="200" height="205" as="geometry" />
        </mxCell>
        <mxCell id="TWlD7kDGyjFfQOnUKKmX-18" value="" style="rounded=0;whiteSpace=wrap;html=1;opacity=30;" vertex="1" parent="1">
          <mxGeometry x="560" y="230" width="540" height="430" as="geometry" />
        </mxCell>
      </root>
    </mxGraphModel>
  </diagram>
</mxfile>
